<svg version="1.1" id="Layer_1" xmlns="http://www.w3.org/2000/svg" xmlns:xlink="http://www.w3.org/1999/xlink" x="0px" y="0px"
	 width="100%" viewBox="0 0 1024 1024" enable-background="new 0 0 1024 1024" xml:space="preserve">
<path fill="#b8b8b8ff" opacity="1.000000" stroke="none" 
	d="
M626.562744,151.433228 
	C652.501770,149.326721 677.901367,149.190399 703.058899,154.638824 
	C707.799744,155.665558 712.317200,157.378937 716.769348,159.255951 
	C740.158447,169.116791 749.641418,187.900055 744.900208,213.404968 
	C740.499634,237.077362 728.461121,256.802795 714.227905,275.508148 
	C683.028198,316.510956 646.295654,352.349823 609.236389,387.884918 
	C584.216370,411.875946 558.210815,434.780731 532.340393,457.834991 
	C528.447754,461.303925 527.168335,465.834930 526.608398,470.737671 
	C525.532837,480.155029 524.485901,489.575897 523.351562,498.986176 
	C522.783020,503.702545 524.027161,507.654510 526.931396,511.523834 
	C546.037170,536.978027 565.111267,562.457886 581.218689,589.997192 
	C595.490112,614.397339 608.056091,639.490723 613.687927,667.493591 
	C614.375549,670.912903 614.918152,674.372498 615.306885,677.838257 
	C615.904114,683.163513 618.361816,687.186890 623.649170,688.488037 
	C630.924438,690.278320 635.311340,695.100220 638.890564,701.198975 
	C645.147034,711.859802 649.426636,723.477295 655.187927,734.381470 
	C668.184937,758.980530 687.859375,765.391602 711.998779,764.206299 
	C750.190002,762.330994 784.788635,747.560486 819.350830,733.096436 
	C852.075562,719.401245 883.751526,703.284973 916.878296,690.487488 
	C934.925842,683.515442 953.329529,677.741516 972.265747,673.736145 
	C978.800598,672.353882 985.107849,670.230225 991.461060,668.241272 
	C992.891479,667.793518 994.305847,667.249451 995.769348,666.962219 
	C998.656067,666.395752 1001.263916,666.910950 1002.205933,670.096436 
	C1003.106567,673.141968 1001.704224,675.255066 998.770935,676.358215 
	C953.023315,693.565247 910.594971,718.010620 865.786926,737.299866 
	C831.665833,751.988525 797.802124,767.223999 762.071960,777.748718 
	C746.023926,782.475891 729.655945,785.600647 712.950989,785.933167 
	C688.729370,786.415344 666.137390,781.772156 649.018311,762.510071 
	C642.651855,755.346619 637.708191,747.277771 633.616272,738.657532 
	C630.115906,731.283325 626.680664,723.878357 623.179199,716.504700 
	C621.996155,714.013245 620.775452,711.513123 617.820435,709.528931 
	C616.658264,717.029419 616.433350,723.988953 614.860107,730.753479 
	C607.867981,760.817932 589.954529,783.259216 565.932129,801.599060 
	C535.085144,825.149048 499.790253,839.219360 463.045349,850.182129 
	C429.948792,860.056458 396.048096,865.974121 361.841064,870.413330 
	C327.557983,874.862305 293.130615,876.128540 258.633698,875.215088 
	C213.341263,874.015808 169.623093,865.757019 129.186157,844.177185 
	C108.050812,832.898010 88.790581,819.142273 76.166412,798.242615 
	C54.182011,761.846802 54.240307,724.540588 72.871811,686.753784 
	C95.388863,641.086670 129.022034,605.198486 170.374451,576.253235 
	C220.652527,541.060364 276.897644,520.485840 336.942383,509.621552 
	C352.842255,506.744659 368.832703,504.700989 385.039490,507.490204 
	C397.772186,509.681549 408.546387,514.740784 414.991699,526.679565 
	C415.363342,527.367981 416.061432,527.880249 416.508331,528.366516 
	C418.632568,528.336609 419.722351,526.921448 420.959198,525.886475 
	C436.548584,512.841797 452.139221,499.798248 467.650299,486.660828 
	C473.108948,482.037506 473.296478,479.407135 468.794586,472.938416 
	C454.231842,452.013153 439.434662,431.248871 425.050507,410.202057 
	C412.513702,391.858307 401.261993,372.740173 394.792358,351.289673 
	C378.834015,298.378815 392.127716,256.056030 435.032227,220.756607 
	C468.930695,192.866791 507.996552,175.844437 550.033020,164.815445 
	C575.018066,158.260193 600.281128,153.278610 626.562744,151.433228 
M197.905502,842.543152 
	C228.811844,849.393188 260.106842,850.640015 293.103485,849.364258 
	C284.742279,844.680420 279.944580,839.065186 278.381927,830.660889 
	C276.889771,822.635681 278.406860,815.103516 280.465973,807.547607 
	C284.882690,791.340454 292.817810,776.666260 300.649261,761.963684 
	C302.225891,759.003784 303.043854,756.658264 299.408234,754.435669 
	C289.751862,748.532227 285.292328,739.347412 283.570007,728.498535 
	C281.696136,716.695129 285.045654,705.715515 288.897369,694.874451 
	C296.909180,672.324341 310.617676,653.386597 326.754059,636.032715 
	C342.813782,618.761292 360.230774,603.493164 383.760529,597.179382 
	C385.062256,596.830078 386.331085,596.243530 386.921143,594.924255 
	C389.591614,588.953491 392.025665,582.900513 393.634644,575.962158 
	C390.140106,577.226074 388.086548,579.186462 385.906921,580.951477 
	C356.651611,604.642029 327.329468,628.250671 298.163330,652.050537 
	C269.129578,675.742371 240.306488,699.692261 211.290466,723.405884 
	C187.819962,742.587402 165.251450,762.872681 140.894760,780.969788 
	C138.890427,782.459106 136.821198,784.484436 134.288254,782.236450 
	C131.479706,779.743774 133.481430,777.407043 135.037598,775.233337 
	C141.551346,766.135010 148.911743,757.752075 156.723923,749.758606 
	C192.542114,713.109436 232.209473,680.766846 271.267700,647.766296 
	C310.846893,614.325562 351.541626,582.239258 391.858673,549.696106 
	C399.026550,543.910339 398.447052,537.379089 390.454132,532.636963 
	C388.433960,531.438416 386.225098,530.734192 383.916412,530.258789 
	C371.725555,527.748047 359.597534,529.572998 347.688721,531.651062 
	C293.232697,541.153748 241.547501,558.511475 194.476257,588.050781 
	C153.085907,614.025085 119.338142,647.398438 96.391884,691.053101 
	C85.785820,711.230896 80.370781,732.234863 84.733047,755.071655 
	C89.427750,779.648987 103.883461,797.441406 123.908546,811.363647 
	C146.136353,826.817444 171.025482,835.968201 197.905502,842.543152 
M517.570374,271.188171 
	C519.145203,267.691345 520.672485,264.121429 523.199280,261.214355 
	C526.865540,256.996368 531.399414,254.059402 537.228210,255.532074 
	C542.973450,256.983643 545.816467,261.548340 547.244446,266.967804 
	C548.223450,270.683441 548.539490,274.524841 548.200439,278.372314 
	C547.192688,289.805023 546.364807,301.259399 545.064026,312.659363 
	C541.294067,345.698303 537.249390,378.705994 533.508911,411.748169 
	C532.828491,417.758453 531.653992,423.792572 532.106934,429.897644 
	C533.564087,430.030151 534.172485,429.126617 534.886047,428.493439 
	C563.299683,403.282959 591.504211,377.846283 618.487549,351.090942 
	C647.485718,322.337769 676.078308,293.191498 700.555420,260.379089 
	C712.263977,244.683456 722.226196,227.985382 725.373596,208.101547 
	C727.466675,194.878662 724.240356,185.895813 714.860535,180.184097 
	C709.408325,176.863998 703.502686,174.518188 697.255493,173.328033 
	C670.117188,168.157944 642.891602,169.420029 615.704346,172.793045 
	C594.002075,175.485550 572.912842,181.091583 552.039673,187.419388 
	C515.265320,198.567749 480.446838,213.727493 450.644592,238.672150 
	C436.745117,250.306122 423.930481,262.993591 417.483643,280.470917 
	C409.045044,303.347870 410.316406,326.232605 418.770325,348.834930 
	C426.950806,370.706085 439.561981,390.140869 452.650574,409.272980 
	C459.863647,419.816620 467.313965,430.197968 475.282837,441.542938 
	C475.884003,438.818176 476.338806,437.275543 476.555084,435.700134 
	C480.606293,406.189545 486.561554,377.041534 493.878845,348.193573 
	C500.424255,322.388641 507.167328,296.610870 517.570374,271.188171 
M557.267090,714.763855 
	C565.879578,706.048889 575.825500,699.085938 586.254456,692.769348 
	C590.190063,690.385681 592.294434,687.200439 591.493896,682.412781 
	C589.291565,669.240906 586.113220,656.340820 580.977600,643.975403 
	C568.373169,613.626831 550.883423,586.110046 531.919434,559.454041 
	C527.917664,553.829224 523.779968,548.301147 518.831543,541.534241 
	C517.849426,547.986450 517.032959,552.839539 516.381226,557.714661 
	C511.774689,592.173157 506.065399,626.435120 498.704285,660.424744 
	C496.001434,672.905090 492.083313,685.281006 493.395630,698.330322 
	C495.724121,721.483826 497.160706,744.745728 501.424530,767.669434 
	C502.710968,774.585999 503.700226,781.641052 507.586273,789.535950 
	C520.722595,761.543579 535.363037,736.103271 557.267090,714.763855 
M457.247314,731.846802 
	C459.791351,724.625000 462.441559,717.438354 464.849304,710.171448 
	C467.195709,703.089539 470.849091,696.241394 470.714417,688.606567 
	C470.491486,675.967651 469.749054,663.337158 469.166107,650.705872 
	C469.054443,648.286560 468.668762,645.879944 468.302734,642.474182 
	C458.819336,654.881165 449.046417,665.740723 439.173340,676.508911 
	C436.734833,679.168457 435.197876,682.173279 434.268921,685.625549 
	C426.005920,716.334351 412.659821,744.712341 394.130524,770.504578 
	C386.863495,780.620117 384.867096,791.139343 387.396576,803.033264 
	C390.274750,816.567078 401.724030,820.745239 412.453949,811.980103 
	C419.374573,806.326782 424.741852,799.335327 429.440094,791.815369 
	C441.064240,773.209900 449.368744,753.055176 457.247314,731.846802 
M425.403839,548.941223 
	C422.643311,551.104614 419.630341,553.154907 419.405304,557.101746 
	C418.709259,569.307922 416.011383,581.110596 412.189270,592.663330 
	C411.178894,595.717407 411.790710,597.352173 414.877777,598.275330 
	C422.177185,600.457947 427.896454,604.837097 432.159241,611.126709 
	C434.121033,614.021301 436.453583,614.500916 439.376495,612.509033 
	C442.142456,610.624207 445.115204,609.278259 448.465637,608.582275 
	C455.354645,607.151184 461.476410,609.078735 467.701965,613.042114 
	C467.583221,579.341003 468.547455,546.387024 469.311768,512.492432 
	C454.361145,524.912231 440.162598,536.707336 425.403839,548.941223 
M504.644440,394.012543 
	C500.440735,416.559021 495.496735,439.003693 494.415100,462.396088 
	C497.271088,462.034485 498.508148,460.650696 499.855438,459.471985 
	C503.737579,456.075500 507.339081,452.276031 511.552734,449.360199 
	C517.627197,445.156555 519.913696,439.287994 520.661194,432.414215 
	C523.102661,409.963257 525.507080,387.508148 527.992004,365.061981 
	C530.497559,342.429352 533.186096,319.812042 532.720520,296.976013 
	C532.690613,295.509460 533.179749,293.865234 531.517456,291.869385 
	C519.519836,325.322845 512.095459,359.231079 504.644440,394.012543 
M455.175262,790.544189 
	C445.865265,808.742920 433.675446,824.458801 414.866241,836.079773 
	C431.262512,833.557617 445.842102,829.660278 460.259003,825.151855 
	C469.937256,822.125183 479.515778,818.779236 489.135406,815.565613 
	C493.119781,814.234497 494.588470,812.243408 491.677887,808.255676 
	C489.944244,805.880371 488.783142,803.022522 487.694550,800.251953 
	C482.181030,786.219849 479.840118,771.446899 477.668060,756.635742 
	C477.229675,753.646484 477.354462,750.433167 474.698883,747.134338 
	C467.655701,761.598511 462.693756,776.256897 455.175262,790.544189 
M317.911407,781.371216 
	C311.829315,793.566956 305.195831,805.542603 302.828796,819.219421 
	C302.467194,821.308838 301.411072,823.673584 303.557739,825.213989 
	C305.581818,826.666260 307.716248,825.365295 309.680908,824.479553 
	C314.269562,822.410767 318.284882,819.478210 322.165558,816.302979 
	C333.679352,806.882507 342.769684,795.021301 353.665100,785.017517 
	C364.600372,774.977173 365.418427,761.683716 367.571472,747.820984 
	C361.157440,751.408691 355.603210,754.754272 349.549866,757.090576 
	C343.457245,759.441956 337.117493,760.716614 330.637848,761.399170 
	C328.342987,761.640869 327.334137,763.498657 326.390839,765.254272 
	C323.635071,770.382874 320.954773,775.552002 317.911407,781.371216 
M368.981720,636.530029 
	C369.906372,633.724365 372.000854,631.252991 371.928741,627.433716 
	C369.629181,628.903381 367.889008,629.878967 366.296356,631.054443 
	C348.786865,643.977478 334.499725,659.832642 323.352142,678.509888 
	C316.515869,689.963745 309.681641,701.469666 307.772491,714.985901 
	C307.036072,720.199402 306.127991,725.622925 308.894562,730.620667 
	C312.198547,736.589111 314.998444,736.718811 318.235840,730.853882 
	C335.369995,699.813354 353.507446,669.311523 368.981720,636.530029 
M366.095917,694.519226 
	C359.439728,706.561951 352.783539,718.604675 345.722687,731.379578 
	C351.763489,729.212524 356.281250,726.185120 360.706116,723.053650 
	C371.441742,715.456055 381.005310,706.954712 384.561951,693.449951 
	C385.608643,689.475464 387.665833,685.748230 389.420624,681.982544 
	C396.036560,667.785278 403.543762,654.097351 412.579285,641.263794 
	C417.075653,634.877380 416.885437,628.052246 412.422943,623.459290 
	C406.710480,617.579895 402.611176,618.275574 399.545929,625.682556 
	C389.866943,649.071289 378.473816,671.626160 366.095917,694.519226 
M544.910400,764.353149 
	C538.976746,774.020813 533.709961,784.009705 529.906738,794.831482 
	C538.999573,790.785095 546.912537,785.350586 554.505371,779.411011 
	C572.456665,765.368408 585.606323,748.065063 591.092041,725.554749 
	C591.876282,722.336731 592.190735,719.129578 590.923584,714.902588 
	C571.777161,728.176636 557.157288,744.642639 544.910400,764.353149 
M501.393738,568.031860 
	C503.375763,555.747009 505.346313,543.460266 507.351318,531.179199 
	C507.676575,529.186707 508.137878,527.136780 506.911652,525.369507 
	C502.023682,518.324890 497.044922,511.343323 492.099792,504.338409 
	C491.662292,504.466095 491.224823,504.593781 490.787323,504.721466 
	C489.373627,541.978943 488.462708,579.240173 490.604919,617.120911 
	C495.357574,600.892090 498.441254,584.919434 501.393738,568.031860 
M330.006256,840.591675 
	C325.832397,843.080933 321.658569,845.570129 317.175629,848.243713 
	C330.949829,849.322144 390.721863,842.240356 399.665405,838.384033 
	C380.384644,837.729248 371.027649,825.636780 364.941315,808.862366 
	C353.389038,820.010742 343.217743,831.473328 330.006256,840.591675 
M513.551575,488.296417 
	C513.966492,483.580780 515.275391,478.933136 514.778931,473.591919 
	C512.153992,475.734436 509.845642,477.557861 507.608521,479.464844 
	C505.973755,480.858398 505.648071,482.800598 506.894135,484.379974 
	C508.600952,486.543304 509.261688,489.881775 512.753601,490.227631 
	C512.922058,490.244324 513.176086,489.397339 513.551575,488.296417 
z"/>
<path fill="#fff" opacity="1.000000" stroke="none" 
	d="
M766.983826,874.671509 
	C770.645630,874.690125 773.815857,874.607422 776.974548,874.761597 
	C779.341064,874.877258 782.119812,875.253235 782.078491,878.302185 
	C782.031494,881.772766 778.975586,881.687805 776.486023,881.725281 
	C774.160583,881.760376 771.832397,881.472778 769.503296,881.419739 
	C747.819946,880.925598 726.297791,883.313110 704.728394,884.958008 
	C691.619263,885.957764 678.479004,886.601379 665.342896,887.182129 
	C633.249207,888.601318 601.203918,890.743530 569.162964,893.043091 
	C527.135315,896.059326 485.435577,901.465088 444.044342,909.305969 
	C386.761902,920.156982 330.324768,934.335999 274.867310,952.357056 
	C271.228699,953.539429 267.686493,955.017761 264.050751,956.209839 
	C258.131561,958.150635 253.544479,956.324890 251.611832,951.398193 
	C249.813202,946.813110 251.912170,942.406250 257.615082,939.924622 
	C273.040649,933.212219 288.738983,927.178833 304.656921,921.732117 
	C355.164520,904.449890 407.009613,892.618896 459.548248,883.533020 
	C489.059418,878.429443 518.727905,874.572205 548.538696,871.910034 
	C586.896301,868.484680 625.364319,867.782410 663.836182,869.042725 
	C690.110779,869.903503 716.332825,871.861816 742.509766,874.451050 
	C750.432068,875.234680 758.490967,874.636902 766.983826,874.671509 
z"/>
<path fill="#fff" opacity="1.000000" stroke="none" 
	d="
M761.896301,536.938843 
	C765.003906,534.395752 767.957458,532.204712 770.595276,529.683350 
	C778.047852,522.559631 786.463806,518.529907 797.143616,519.508240 
	C801.993835,519.952515 804.893066,521.854797 806.381287,526.321533 
	C808.952881,534.040100 809.711914,541.895264 808.138245,549.906494 
	C806.784180,556.800171 804.478333,563.397827 801.249023,569.621277 
	C798.215271,575.468018 792.142029,578.953430 787.155762,578.072876 
	C780.744629,576.940552 776.615417,572.168884 775.513855,564.847717 
	C774.782104,559.984619 775.452698,555.246948 776.446777,550.519470 
	C777.023560,547.776794 777.684875,545.051880 778.365051,542.069336 
	C773.933777,540.423950 770.043518,541.364868 766.207275,543.060730 
	C763.776489,544.135376 761.398193,545.351074 758.907959,546.261902 
	C756.795471,547.034668 754.867249,546.547058 754.012756,544.208740 
	C753.221619,542.043518 754.430725,540.794128 756.294983,539.901001 
	C758.091309,539.040466 759.832581,538.065002 761.896301,536.938843 
z"/>
</svg>